<?xml version="1.0" encoding="UTF-8" standalone="no"?>
<!DOCTYPE svg PUBLIC "-//W3C//DTD SVG 1.1//EN" "http://www.w3.org/Graphics/SVG/1.1/DTD/svg11.dtd">
<svg width="100%" height="100%" viewBox="0 0 906 147" version="1.1" xmlns="http://www.w3.org/2000/svg" xmlns:xlink="http://www.w3.org/1999/xlink" xml:space="preserve" xmlns:serif="http://www.serif.com/" style="fill-rule:evenodd;clip-rule:evenodd;stroke-linejoin:round;stroke-miterlimit:2;">
    <g>
        <rect x="54.99" y="82.69" width="18.33" height="18.33" style="fill:white;"/>
        <rect x="54.99" y="55.2" width="18.33" height="18.33" style="fill:white;"/>
        <rect x="54.99" y="27.71" width="18.33" height="18.33" style="fill:white;"/>
        <rect x="54.99" y="0.22" width="18.33" height="18.33" style="fill:white;"/>
        <rect x="27.49" y="27.71" width="18.33" height="18.33" style="fill:white;"/>
        <rect x="27.49" y="0.22" width="18.33" height="18.33" style="fill:white;"/>
        <rect x="0" y="27.71" width="18.33" height="18.33" style="fill:white;"/>
        <rect x="27.49" y="82.69" width="18.33" height="18.33" style="fill:white;"/>
        <rect x="27.49" y="55.2" width="18.33" height="18.33" style="fill:white;"/>
        <rect x="0" y="82.69" width="18.33" height="18.33" style="fill:white;"/>
        <rect x="0" y="55.2" width="18.33" height="18.33" style="fill:white;"/>
    </g>
    <path d="M194.41,18.54L194.41,101.02L173.98,101.02L173.98,18.54L146.62,18.54L146.62,0.22L221.77,0.22L221.77,18.54L194.41,18.54Z" style="fill:white;fill-rule:nonzero;"/>
    <path d="M300.56,101.02L300.56,58.89L265.12,58.89L265.12,101.02L244.68,101.02L244.68,0.21L265.12,0.21L265.12,40.8L300.56,40.8L300.56,0.21L321,0.21L321,101.02L300.56,101.02Z" style="fill:white;fill-rule:nonzero;"/>
    <path d="M418.32,101.02L418.32,43.9L398.79,82.68L384.01,82.69L364.35,43.9L364.35,101.02L343.91,101.02L343.91,0.21L364.06,0.21L391.41,56.84L418.61,0.21L438.76,0.21L438.76,101.02L418.32,101.02Z" style="fill:white;fill-rule:nonzero;"/>
    <g transform="matrix(1,0,0,1,-6.94,-13.63)">
        <path d="M445.73,159.58L445.73,137.58L443.08,137.58L443.08,152.58L437.45,137.58L435,137.58L435,159.58L437.65,159.58L437.65,144.58L443.34,159.58L445.75,159.58L445.73,159.58ZM431.03,159.58L431.03,157.2L425.19,157.2L425.19,149.72L430.19,149.72L430.19,147.35L425.19,147.35L425.19,140L431,140L431,137.62L422.51,137.62L422.51,159.62L431,159.62L431.03,159.58ZM418.55,153.68C418.55,150.22 417.96,148.68 415.47,147.68L412.99,146.68C411.23,145.94 410.89,145.29 410.89,143.13C410.818,142.189 411.092,141.254 411.66,140.5C412.106,140.039 412.729,139.791 413.37,139.82C414.05,139.77 414.714,140.045 415.16,140.56C415.703,141.334 415.945,142.28 415.84,143.22L418.49,143.22C418.49,141.22 418.15,139.79 417.04,138.71C416.039,137.822 414.726,137.365 413.39,137.44C412.107,137.4 410.857,137.855 409.9,138.71C408.736,139.911 408.132,141.551 408.24,143.22C408.24,146.56 408.98,147.79 411.24,148.72L413.74,149.72C415.53,150.46 415.91,151.23 415.91,153.72C415.91,155.17 415.78,156.01 415.2,156.66C414.141,157.579 412.549,157.579 411.49,156.66C410.9,156.04 410.75,155.24 410.75,153.78L408.1,153.78C408.1,156.13 408.44,157.4 409.46,158.41C410.515,159.355 411.907,159.834 413.32,159.74C414.74,159.82 416.137,159.343 417.21,158.41C418.21,157.41 418.57,155.91 418.57,153.62M404.52,153.62C404.52,150.16 403.93,148.62 401.43,147.62L398.96,146.62C397.2,145.88 396.86,145.23 396.86,143.07C396.787,142.129 397.061,141.193 397.63,140.44C398.073,139.981 398.692,139.733 399.33,139.76C400.01,139.71 400.674,139.985 401.12,140.5C401.664,141.274 401.906,142.22 401.8,143.16L404.45,143.16C404.45,141.16 404.11,139.73 403,138.65C401.999,137.762 400.686,137.305 399.35,137.38C398.067,137.34 396.817,137.795 395.86,138.65C394.696,139.851 394.092,141.491 394.2,143.16C394.2,146.5 394.94,147.73 397.2,148.66L399.7,149.66C401.49,150.4 401.87,151.17 401.87,153.66C401.87,155.11 401.74,155.95 401.16,156.6C400.101,157.519 398.509,157.519 397.45,156.6C396.86,155.98 396.71,155.18 396.71,153.72L394,153.72C394,156.07 394.34,157.34 395.36,158.35C396.415,159.295 397.807,159.774 399.22,159.68C400.64,159.76 402.037,159.283 403.11,158.35C404.11,157.35 404.47,155.85 404.47,153.56M390.62,159.62L390.62,157.2L384.78,157.2L384.78,149.72L389.78,149.72L389.78,147.35L384.78,147.35L384.78,140L390.62,140L390.62,137.62L382.12,137.62L382.12,159.62L390.62,159.62ZM377.62,159.46L377.62,137.46L375,137.46L375,147.07L370.12,147.07L370.12,137.46L367.47,137.46L367.47,159.46L370.12,159.46L370.12,149.46L375,149.46L375,159.46L377.65,159.46L377.62,159.46ZM363.77,159.58L363.77,157.2L357.93,157.2L357.93,137.58L355.28,137.58L355.28,159.58L363.77,159.58ZM351.33,159.62L351.33,157.2L345.49,157.2L345.49,149.72L350.49,149.72L350.49,147.35L345.49,147.35L345.49,140L351.33,140L351.33,137.62L342.84,137.62L342.84,159.62L351.33,159.62ZM339.19,140L339.19,137.62L329.19,137.62L329.19,140L332.9,140L332.9,159.62L335.55,159.62L335.55,140L339.23,140L339.19,140ZM326.19,140L326.19,137.62L316.19,137.62L316.19,140L319.9,140L319.9,159.62L322.55,159.62L322.55,140L326.23,140L326.19,140ZM312.51,137.62L309.86,137.62L309.86,159.62L312.51,159.62L312.51,137.62ZM305.44,159.62L305.44,137.62L302.94,137.62L298.52,149.85L294,137.58L291.5,137.58L291.5,159.58L294.15,159.58L294.15,144.17L297.58,154.17L299.22,154.17L302.71,143.88L302.71,159.54L305.36,159.54L305.44,159.62ZM280.75,159.62L280.75,157.2L274.91,157.2L274.91,149.72L279.91,149.72L279.91,147.35L274.91,147.35L274.91,140L280.75,140L280.75,137.62L272.26,137.62L272.26,159.62L280.75,159.62ZM268.6,159.62L268.6,157.2L262.76,157.2L262.76,137.58L260.11,137.58L260.11,159.58L268.6,159.58L268.6,159.62ZM255.68,154.62L255.68,137.62L253,137.62L253,154.77C253.007,154.843 253.01,154.917 253.01,154.991C253.01,156.329 251.909,157.431 250.57,157.431C249.231,157.431 248.13,156.329 248.13,154.991C248.13,154.917 248.133,154.843 248.14,154.77L248.14,137.58L245.5,137.58L245.5,154.58C245.441,155.986 245.953,157.358 246.92,158.38C247.885,159.338 249.201,159.862 250.56,159.83C251.931,159.861 253.259,159.338 254.24,158.38C255.206,157.357 255.718,155.986 255.66,154.58M241.07,159.58L241.07,137.58L238.42,137.58L238.42,147.19L233.54,147.19L233.54,137.58L230.89,137.58L230.89,159.58L233.54,159.58L233.54,149.58L238.42,149.58L238.42,159.58L241.07,159.58ZM227.14,154.14L224.52,154.14C224.541,155.038 224.294,155.923 223.81,156.68C223.388,157.195 222.745,157.481 222.08,157.45C221.371,157.491 220.686,157.18 220.25,156.62C219.48,155.57 219.36,153.81 219.36,148.62C219.36,143.43 219.48,141.62 220.25,140.62C220.686,140.06 221.371,139.749 222.08,139.79C222.746,139.757 223.389,140.044 223.81,140.56C224.307,141.296 224.556,142.172 224.52,143.06L227.15,143.06C227.214,141.458 226.65,139.893 225.58,138.7C223.473,136.872 220.264,137.01 218.32,139.01C216.87,140.68 216.71,142.56 216.71,148.65C216.71,154.74 216.87,156.65 218.32,158.29C219.27,159.365 220.657,159.954 222.09,159.89C223.335,159.943 224.554,159.513 225.49,158.69C226.629,157.484 227.231,155.867 227.16,154.21M213.35,153.75C213.35,150.29 212.76,148.75 210.26,147.75L207.78,146.75C206.02,146.01 205.68,145.36 205.68,143.2C205.606,142.259 205.88,141.323 206.45,140.57C206.892,140.11 207.512,139.862 208.15,139.89C208.833,139.839 209.501,140.113 209.95,140.63C210.493,141.404 210.735,142.35 210.63,143.29L213.28,143.29C213.28,141.29 212.94,139.86 211.83,138.78C210.829,137.892 209.516,137.435 208.18,137.51C206.897,137.47 205.647,137.925 204.69,138.78C203.522,139.979 202.915,141.619 203.02,143.29C203.02,146.63 203.76,147.86 206.02,148.79L208.52,149.79C210.31,150.53 210.68,151.3 210.68,153.79C210.68,155.24 210.56,156.08 209.97,156.73C208.911,157.649 207.319,157.649 206.26,156.73C205.67,156.11 205.52,155.31 205.52,153.85L202.87,153.85C202.87,156.2 203.21,157.47 204.23,158.48C205.288,159.426 206.684,159.906 208.1,159.81C209.52,159.89 210.917,159.413 211.99,158.48C212.99,157.48 213.35,155.98 213.35,153.69M199,159.58L199,137.58L196.3,137.58L196.3,147.19L191.42,147.19L191.42,137.58L188.77,137.58L188.77,159.58L191.42,159.58L191.42,149.58L196.3,149.58L196.3,159.58L199,159.58ZM184.9,154.14L182.28,154.14C182.3,155.038 182.053,155.922 181.57,156.68C181.149,157.196 180.506,157.483 179.84,157.45C179.135,157.488 178.454,157.177 178.02,156.62C177.25,155.57 177.13,153.81 177.13,148.62C177.13,143.43 177.25,141.62 178.02,140.62C178.454,140.063 179.135,139.752 179.84,139.79C180.506,139.757 181.149,140.044 181.57,140.56C182.067,141.296 182.316,142.172 182.28,143.06L184.9,143.06C184.965,141.458 184.401,139.893 183.33,138.7C181.223,136.872 178.014,137.01 176.07,139.01C174.62,140.68 174.47,142.56 174.47,148.65C174.47,154.74 174.63,156.65 176.07,158.29C177.02,159.365 178.407,159.954 179.84,159.89C181.085,159.943 182.304,159.513 183.24,158.69C184.379,157.484 184.981,155.867 184.91,154.21M168,148.58C168,153.8 167.85,155.58 167.07,156.58C166.65,157.138 165.977,157.45 165.28,157.41C164.575,157.448 163.894,157.137 163.46,156.58C162.69,155.53 162.56,153.77 162.56,148.58C162.56,143.39 162.69,141.58 163.46,140.58C163.894,140.023 164.575,139.712 165.28,139.75C165.977,139.71 166.65,140.022 167.07,140.58C167.85,141.63 168,143.39 168,148.58M170.65,148.58C170.65,142.49 170.47,140.51 169.05,138.94C168.064,137.915 166.702,137.335 165.28,137.335C163.858,137.335 162.496,137.915 161.51,138.94C160.09,140.52 159.9,142.49 159.9,148.58C159.9,154.67 160.09,156.64 161.51,158.22C162.496,159.245 163.858,159.825 165.28,159.825C166.702,159.825 168.064,159.245 169.05,158.22C170.47,156.64 170.65,154.67 170.65,148.58M155.88,159.58L155.88,137.58L153.23,137.58L153.23,147.19L148.34,147.19L148.34,137.58L145.69,137.58L145.69,159.58L148.34,159.58L148.34,149.58L153.23,149.58L153.23,159.58L155.88,159.58ZM134.88,159.58L134.88,157.2L129,157.2L129,149.72L134,149.72L134,147.35L129,147.35L129,140L134.84,140L134.84,137.62L126.35,137.62L126.35,159.62L134.84,159.62L134.88,159.58ZM121.88,159.58L121.88,137.58L119.23,137.58L119.23,147.19L114.3,147.19L114.3,137.58L111.65,137.58L111.65,159.58L114.3,159.58L114.3,149.58L119.18,149.58L119.18,159.58L121.88,159.58ZM107.95,154.14L105.33,154.14C105.35,155.038 105.103,155.922 104.62,156.68C104.198,157.195 103.555,157.481 102.89,157.45C102.185,157.488 101.504,157.177 101.07,156.62C100.3,155.57 100.17,153.81 100.17,148.62C100.17,143.43 100.29,141.62 101.07,140.62C101.504,140.063 102.185,139.752 102.89,139.79C103.556,139.757 104.199,140.044 104.62,140.56C105.114,141.297 105.363,142.173 105.33,143.06L107.95,143.06C108.015,141.458 107.451,139.893 106.38,138.7C104.273,136.872 101.064,137.01 99.12,139.01C97.67,140.68 97.52,142.56 97.52,148.65C97.52,154.74 97.67,156.65 99.12,158.29C100.069,159.366 101.457,159.955 102.89,159.89C104.135,159.942 105.353,159.512 106.29,158.69C107.429,157.484 108.031,155.867 107.96,154.21M94.15,153.75C94.15,150.29 93.56,148.75 91.06,147.75L88.59,146.75C86.83,146.01 86.49,145.36 86.49,143.2C86.416,142.259 86.69,141.323 87.26,140.57C87.702,140.11 88.322,139.862 88.96,139.89C89.639,139.842 90.303,140.116 90.75,140.63C91.293,141.404 91.535,142.35 91.43,143.29L94,143.29C94,141.29 93.66,139.86 92.55,138.78C91.55,137.891 90.236,137.434 88.9,137.51C87.617,137.47 86.367,137.925 85.41,138.78C84.242,139.979 83.635,141.619 83.74,143.29C83.74,146.63 84.48,147.86 86.74,148.79L89.25,149.79C91.04,150.53 91.41,151.3 91.41,153.79C91.41,155.24 91.29,156.08 90.7,156.73C89.641,157.649 88.049,157.649 86.99,156.73C86.4,156.11 86.25,155.31 86.25,153.85L83.62,153.85C83.62,156.2 83.96,157.47 84.98,158.48C86.035,159.425 87.427,159.904 88.84,159.81C90.26,159.89 91.657,159.413 92.73,158.48C93.73,157.48 94.09,155.98 94.09,153.69M79.72,137.59L77.06,137.59L77.06,159.59L79.71,159.59L79.71,137.59L79.72,137.59ZM72.18,159.59L72.18,137.59L69.53,137.59L69.53,152.59L63.9,137.59L61.43,137.59L61.43,159.59L64.08,159.59L64.08,144.59L69.77,159.59L72.18,159.59ZM56.9,159.59L56.9,137.59L54.25,137.59L54.25,147.2L49.36,147.2L49.36,137.59L46.71,137.59L46.71,159.59L49.36,159.59L49.36,149.59L54.25,149.59L54.25,159.59L56.9,159.59ZM42.8,154.15L40.18,154.15C40.199,155.048 39.952,155.932 39.47,156.69C39.048,157.205 38.405,157.491 37.74,157.46C37.035,157.498 36.354,157.187 35.92,156.63C35.15,155.58 35.02,153.82 35.02,148.63C35.02,143.44 35.14,141.63 35.92,140.63C36.354,140.073 37.035,139.762 37.74,139.8C38.406,139.767 39.049,140.054 39.47,140.57C39.964,141.307 40.213,142.183 40.18,143.07L42.8,143.07C42.866,141.468 42.302,139.902 41.23,138.71C40.293,137.821 39.03,137.354 37.74,137.42C36.307,137.356 34.92,137.945 33.97,139.02C32.52,140.69 32.37,142.57 32.37,148.66C32.37,154.75 32.53,156.66 33.97,158.3C34.92,159.375 36.307,159.964 37.74,159.9C38.985,159.952 40.203,159.522 41.14,158.7C42.275,157.493 42.874,155.876 42.8,154.22M29.11,159.66L29.11,157.2L23.28,157.2L23.28,149.72L28.28,149.72L28.28,147.35L23.28,147.35L23.28,140L29.12,140L29.12,137.62L20.62,137.62L20.62,159.62L29.11,159.62L29.11,159.66ZM17,140L17,137.62L7,137.62L7,140L10.71,140L10.71,159.62L13.3,159.62L13.3,140L17,140Z" style="fill:white;fill-rule:nonzero;"/>
    </g>
    <rect x="108.76" y="0.22" width="2.46" height="100.79" style="fill:white;"/>
    <rect x="474.2" y="0.21" width="2.46" height="100.81" style="fill:white;"/>
    <g>
        <rect x="759.77" y="0.21" width="2.46" height="100.81" style="fill:white;"/>
        <g transform="matrix(1,0,0,1,-6.94,-13.63)">
            <path d="M533.29,53.26C529.366,53.346 525.577,51.803 522.83,49C521.214,47.419 520.112,45.387 519.67,43.17C519.16,39.983 518.943,36.756 519.02,33.53C518.943,30.304 519.16,27.077 519.67,23.89C520.098,21.668 521.202,19.632 522.83,18.06C525.579,15.261 529.368,13.721 533.29,13.81C540.75,13.81 546.29,18.17 547.56,26.07L539.88,26.07C539.06,22.75 536.99,20.57 533.34,20.57C531.503,20.457 529.713,21.195 528.49,22.57C526.91,24.26 526.58,26 526.58,33.52C526.58,41.04 526.91,42.78 528.49,44.47C529.713,45.845 531.503,46.583 533.34,46.47C536.99,46.47 539.06,44.29 539.88,40.97L547.56,40.97C546.26,48.91 540.7,53.26 533.29,53.26Z" style="fill:white;fill-rule:nonzero;"/>
        </g>
        <g transform="matrix(1,0,0,1,-6.94,-13.63)">
            <path d="M575.56,52.94L573.27,46.08L559.49,46.08L557.15,52.94L549.25,52.94L563.36,14.15L569.3,14.15L583.46,52.94L575.56,52.94ZM566.56,25.59L561.66,39.7L571.3,39.7L566.56,25.59Z" style="fill:white;fill-rule:nonzero;"/>
        </g>
        <g transform="matrix(1,0,0,1,-6.94,-13.63)">
            <path d="M615.81,52.94L615.81,30.33L608.4,45L603.28,45L595.82,30.29L595.82,52.94L588.25,52.94L588.25,14.15L595.71,14.15L605.84,35.15L615.92,14.15L623.38,14.15L623.38,52.94L615.81,52.94Z" style="fill:white;fill-rule:nonzero;"/>
        </g>
        <g transform="matrix(1,0,0,1,-6.94,-13.63)">
            <path d="M647.45,38.34L640,38.34L640,52.94L632.43,52.94L632.43,14.15L647.43,14.15C655.43,14.15 660.23,19.65 660.23,26.24C660.23,32.83 655.46,38.34 647.45,38.34ZM647.07,20.91L640,20.91L640,31.53L647.08,31.53C650.51,31.53 652.69,29.41 652.69,26.25C652.69,23.09 650.5,20.91 647.07,20.91Z" style="fill:white;fill-rule:nonzero;"/>
        </g>
        <g transform="matrix(1,0,0,1,-6.94,-13.63)">
            <path d="M680.29,53.26C672.29,53.26 666.02,47.87 666.02,39.64L666.02,14.15L673.59,14.15L673.59,39.37C673.59,43.84 676.2,46.51 680.29,46.51C684.38,46.51 687,43.84 687,39.37L687,14.15L694.52,14.15L694.52,39.65C694.57,47.87 688.25,53.26 680.29,53.26Z" style="fill:white;fill-rule:nonzero;"/>
        </g>
        <g transform="matrix(1,0,0,1,-6.94,-13.63)">
            <path d="M713.68,53.26C707.8,53.26 703.33,52.01 699.52,48.14L704.42,43.24C706.87,45.69 710.19,46.51 713.79,46.51C718.26,46.51 720.65,44.82 720.65,41.72C720.727,40.51 720.291,39.323 719.45,38.45C718.481,37.63 717.268,37.152 716,37.09L711.31,36.44C707.99,35.95 705.54,34.91 703.79,33.23C701.847,31.178 700.837,28.411 701,25.59C701,18.67 706.12,13.82 714.51,13.82C719.85,13.82 723.72,15.13 727.04,18.34L722.25,23.08C719.8,20.74 716.86,20.41 714.25,20.41C710.25,20.41 708.25,22.64 708.25,25.31C708.225,26.355 708.638,27.364 709.39,28.09C710.408,28.943 711.659,29.472 712.98,29.61L717.56,30.26C721.1,30.75 723.33,31.73 724.97,33.26C727.04,35.26 727.97,38.05 727.97,41.49C728.06,49 721.8,53.26 713.68,53.26Z" style="fill:white;fill-rule:nonzero;"/>
        </g>
        <g transform="matrix(1,0,0,1,-6.94,-13.63)">
            <path d="M544.24,110.2C541.379,113.151 537.397,114.754 533.29,114.61C529.368,114.699 525.579,113.159 522.83,110.36C521.214,108.779 520.112,106.747 519.67,104.53C519.16,101.343 518.943,98.116 519.02,94.89C518.943,91.664 519.16,88.437 519.67,85.25C520.098,83.028 521.202,80.992 522.83,79.42C525.579,76.621 529.368,75.081 533.29,75.17C542.11,75.17 546.85,80.84 547.89,87.59L540.26,87.59C539.33,83.83 537.05,81.93 533.26,81.93C531.427,81.87 529.659,82.629 528.44,84C527.02,85.8 526.59,87.21 526.59,94.89C526.59,102.57 526.92,104.04 528.44,105.84C529.663,107.215 531.453,107.953 533.29,107.84C535.317,107.929 537.285,107.133 538.68,105.66C539.878,104.211 540.498,102.368 540.42,100.49L540.42,99L533.28,99L533.28,92.72L547.93,92.72L547.93,98.39C547.94,104 546.91,107.37 544.24,110.2Z" style="fill:white;fill-rule:nonzero;"/>
        </g>
        <g transform="matrix(1,0,0,1,-6.94,-13.63)">
            <rect x="555" y="75.5" width="7.57" height="38.79" style="fill:white;fill-rule:nonzero;"/>
        </g>
        <g transform="matrix(1,0,0,1,-6.94,-13.63)">
            <path d="M571.63,114.29L571.63,75.5L597.18,75.5L597.18,82.25L579.18,82.25L579.18,91.35L594.49,91.35L594.49,98.1L579.21,98.1L579.21,107.52L597.21,107.52L597.21,114.27L571.63,114.27L571.63,114.29Z" style="fill:white;fill-rule:nonzero;"/>
        </g>
        <g transform="matrix(1,0,0,1,-6.94,-13.63)">
            <path d="M615.26,114.61C609.38,114.61 604.91,113.36 601.1,109.49L606,104.59C608.45,107.04 611.77,107.86 615.37,107.86C619.84,107.86 622.23,106.17 622.23,103.07C622.299,101.856 621.852,100.668 621,99.8C620.036,98.984 618.831,98.506 617.57,98.44L612.88,97.79C609.56,97.3 607.11,96.26 605.36,94.58C603.423,92.529 602.417,89.766 602.58,86.95C602.58,80.03 607.7,75.18 616.09,75.18C621.43,75.18 625.3,76.49 628.62,79.7L623.83,84.44C621.38,82.1 618.44,81.77 615.83,81.77C611.83,81.77 609.83,84 609.83,86.67C609.805,87.715 610.218,88.724 610.97,89.45C612.012,90.332 613.301,90.873 614.66,91L619.24,91.65C622.78,92.14 625.01,93.12 626.65,94.65C628.72,96.65 629.65,99.44 629.65,102.88C629.64,110.37 623.38,114.61 615.26,114.61Z" style="fill:white;fill-rule:nonzero;"/>
        </g>
        <g transform="matrix(1,0,0,1,-6.94,-13.63)">
            <path d="M647.13,114.61C641.25,114.61 636.78,113.36 632.97,109.49L637.87,104.59C640.32,107.04 643.64,107.86 647.24,107.86C651.71,107.86 654.1,106.17 654.1,103.07C654.177,101.86 653.741,100.673 652.9,99.8C651.936,98.984 650.731,98.506 649.47,98.44L644.78,97.79C641.46,97.3 639.01,96.26 637.26,94.58C635.323,92.529 634.317,89.766 634.48,86.95C634.48,80.03 639.6,75.18 647.99,75.18C653.33,75.18 657.2,76.49 660.52,79.7L655.73,84.44C653.28,82.1 650.34,81.77 647.73,81.77C643.73,81.77 641.73,84 641.73,86.67C641.705,87.715 642.118,88.724 642.87,89.45C643.904,90.326 645.181,90.867 646.53,91L651.11,91.65C654.65,92.14 656.88,93.12 658.52,94.65C660.59,96.65 661.52,99.44 661.52,102.88C661.51,110.37 655.24,114.61 647.13,114.61Z" style="fill:white;fill-rule:nonzero;"/>
        </g>
        <g transform="matrix(1,0,0,1,-6.94,-13.63)">
            <path d="M668.64,114.29L668.64,75.5L694.19,75.5L694.19,82.25L676.19,82.25L676.19,91.35L691.5,91.35L691.5,98.1L676.21,98.1L676.21,107.52L694.21,107.52L694.21,114.27L668.64,114.27L668.64,114.29Z" style="fill:white;fill-rule:nonzero;"/>
        </g>
        <g transform="matrix(1,0,0,1,-6.94,-13.63)">
            <path d="M724.52,114.29L709.16,90.48L709.16,114.29L701.59,114.29L701.59,75.5L708.34,75.5L723.7,99.25L723.7,75.5L731.27,75.5L731.27,114.29L724.52,114.29Z" style="fill:white;fill-rule:nonzero;"/>
        </g>
        <g transform="matrix(1,0,0,1,-6.94,-13.63)">
            <path d="M829.74,48.57C826.893,51.524 822.921,53.136 818.82,53C814.909,53.087 811.131,51.551 808.39,48.76C806.78,47.184 805.682,45.159 805.24,42.95C804.731,39.77 804.513,36.55 804.59,33.33C804.513,30.11 804.731,26.89 805.24,23.71C805.67,21.497 806.77,19.468 808.39,17.9C811.131,15.109 814.909,13.573 818.82,13.66C827.62,13.66 832.35,19.31 833.38,26.05L825.77,26.05C824.85,22.3 822.56,20.4 818.77,20.4C816.958,20.345 815.211,21.092 814,22.44C812.59,24.23 812.15,25.65 812.15,33.31C812.15,40.97 812.48,42.44 814,44.23C815.221,45.602 817.007,46.34 818.84,46.23C820.862,46.319 822.826,45.527 824.22,44.06C825.417,42.614 826.037,40.775 825.96,38.9L825.96,37.43L818.84,37.43L818.84,31.13L833.46,31.13L833.46,36.78C833.43,42.43 832.4,45.74 829.74,48.57Z" style="fill:white;fill-rule:nonzero;"/>
        </g>
        <g transform="matrix(1,0,0,1,-6.94,-13.63)">
            <path d="M840.5,52.65L840.5,14L866,14L866,20.7L848.05,20.7L848.05,29.77L863.32,29.77L863.32,36.51L848.05,36.51L848.05,45.91L866,45.91L866,52.65L840.5,52.65Z" style="fill:white;fill-rule:nonzero;"/>
        </g>
        <g transform="matrix(1,0,0,1,-6.94,-13.63)">
            <path d="M884,53C878.13,53 873.68,51.75 869.87,47.89L874.79,43C877.23,45.44 880.55,46.26 884.14,46.26C888.59,46.26 890.99,44.58 890.99,41.48C891.065,40.274 890.629,39.09 889.79,38.22C888.83,37.405 887.628,36.927 886.37,36.86L881.7,36.21C878.39,35.72 875.94,34.69 874.2,33C872.269,30.954 871.266,28.199 871.43,25.39C871.43,18.49 876.54,13.65 884.9,13.65C890.23,13.65 894.08,14.95 897.4,18.16L892.62,22.89C890.17,20.55 887.24,20.23 884.69,20.23C880.69,20.23 878.69,22.46 878.69,25.12C878.666,26.162 879.08,27.167 879.83,27.89C880.848,28.743 882.099,29.273 883.42,29.41L888,30C891.53,30.49 893.76,31.47 895.39,33C897.45,35 898.39,37.78 898.39,41.2C898.37,48.73 892.12,53 884,53Z" style="fill:white;fill-rule:nonzero;"/>
        </g>
        <g transform="matrix(1,0,0,1,-6.94,-13.63)">
            <path d="M814.32,112.79C813.228,113.947 811.707,114.603 810.116,114.603C808.613,114.603 807.168,114.017 806.09,112.97C804.61,111.49 804.61,109.97 804.61,106.6C804.61,103.23 804.61,101.71 806.09,100.23C807.148,99.168 808.591,98.577 810.09,98.59C812.855,98.497 815.262,100.555 815.6,103.3L813.92,103.3C813.593,101.455 811.973,100.097 810.1,100.097C809.078,100.097 808.096,100.501 807.37,101.22C806.37,102.22 806.26,103.3 806.26,106.6C806.26,109.9 806.37,110.98 807.37,112C808.09,112.72 809.071,113.121 810.09,113.11C811.241,113.133 812.344,112.637 813.09,111.76C813.73,110.95 814.044,109.93 813.97,108.9L813.97,107.7L810.1,107.7L810.1,106.22L815.66,106.22L815.66,108.72C815.788,110.202 815.303,111.674 814.32,112.79Z" style="fill:white;fill-rule:nonzero;"/>
        </g>
        <g transform="matrix(1,0,0,1,-6.94,-13.63)">
            <path d="M820.29,109.45C820.29,111.84 821.42,113.21 823.5,113.21C824.592,113.255 825.647,112.798 826.36,111.97L827.44,112.97C826.432,114.109 824.958,114.728 823.44,114.65C820.56,114.65 818.68,112.92 818.68,109.07C818.68,105.55 820.38,103.49 823.15,103.49C825.92,103.49 827.62,105.49 827.62,108.76L827.62,109.49L820.27,109.49L820.29,109.45ZM825.71,106.45C825.254,105.457 824.258,104.817 823.165,104.817C822.072,104.817 821.076,105.457 820.62,106.45C820.388,107.028 820.275,107.647 820.29,108.27L826,108.27C826.028,107.647 825.93,107.024 825.71,106.44L825.71,106.45Z" style="fill:white;fill-rule:nonzero;"/>
        </g>
        <g transform="matrix(1,0,0,1,-6.94,-13.63)">
            <path d="M834.45,114.61C832.809,114.706 831.2,114.123 830,113L831,112C831.901,112.879 833.133,113.338 834.39,113.26C836.18,113.26 837.29,112.62 837.29,111.33C837.29,110.33 836.74,109.85 835.47,109.74L833.68,109.58C831.55,109.4 830.43,108.45 830.43,106.66C830.43,104.66 832.11,103.47 834.43,103.47C835.832,103.402 837.215,103.815 838.35,104.64L837.35,105.64C836.506,105.038 835.485,104.735 834.45,104.78C832.86,104.78 832.02,105.47 832.02,106.57C832.02,107.5 832.55,108.05 833.92,108.16L835.67,108.32C837.57,108.5 838.88,109.23 838.88,111.26C838.88,113.29 837.09,114.61 834.45,114.61Z" style="fill:white;fill-rule:nonzero;"/>
        </g>
        <g transform="matrix(1,0,0,1,-6.94,-13.63)">
            <path d="M848.88,114.48L848.88,113.26C848.102,114.14 846.974,114.634 845.8,114.61C844.768,114.665 843.755,114.305 842.99,113.61C842.212,112.792 841.81,111.686 841.88,110.56L841.88,103.56L843.47,103.56L843.47,110.27C843.47,112.2 844.47,113.17 846.13,113.17C846.183,113.173 846.237,113.175 846.291,113.175C847.706,113.175 848.871,112.01 848.871,110.595C848.871,110.486 848.864,110.378 848.85,110.27L848.85,103.56L850.44,103.56L850.44,114.45L848.87,114.45L848.88,114.48Z" style="fill:white;fill-rule:nonzero;"/>
        </g>
        <g transform="matrix(1,0,0,1,-6.94,-13.63)">
            <path d="M861.41,114.48L861.41,107.77C861.41,105.84 860.41,104.87 858.73,104.87C857.05,104.87 856.03,105.87 856.03,107.77L856.03,114.48L854.44,114.48L854.44,103.59L856,103.59L856,104.79C856.768,103.916 857.887,103.428 859.05,103.46C860.076,103.404 861.083,103.765 861.84,104.46C862.618,105.258 863.028,106.347 862.97,107.46L862.97,114.46L861.38,114.46L861.41,114.48Z" style="fill:white;fill-rule:nonzero;"/>
        </g>
        <g transform="matrix(1,0,0,1,-6.94,-13.63)">
            <path d="M873.38,114.48L873.38,113.17C872.664,114.151 871.491,114.696 870.28,114.61C869.298,114.634 868.343,114.275 867.62,113.61C866.51,112.5 866.29,110.69 866.29,108.98C866.29,107.27 866.51,105.46 867.62,104.35C868.343,103.685 869.298,103.326 870.28,103.35C871.476,103.254 872.641,103.78 873.36,104.74L873.36,98.72L874.95,98.72L874.95,114.48L873.38,114.48ZM870.64,104.87C868.27,104.87 867.89,106.87 867.89,109.03C867.89,111.19 868.27,113.19 870.64,113.19C873.01,113.19 873.36,111.19 873.36,109.03C873.36,106.87 873,104.87 870.63,104.87L870.64,104.87Z" style="fill:white;fill-rule:nonzero;"/>
        </g>
        <g transform="matrix(1,0,0,1,-6.94,-13.63)">
            <path d="M885.9,114.48L885.9,107.75C885.9,105.85 884.9,104.87 883.24,104.87C883.184,104.866 883.127,104.864 883.071,104.864C881.661,104.864 880.501,106.025 880.501,107.434C880.501,107.54 880.507,107.645 880.52,107.75L880.52,114.48L878.93,114.48L878.93,98.72L880.52,98.72L880.52,104.79C881.285,103.912 882.406,103.423 883.57,103.46C883.655,103.454 883.74,103.451 883.825,103.451C885.844,103.451 887.505,105.112 887.505,107.131C887.505,107.241 887.5,107.351 887.49,107.46L887.49,114.46L885.9,114.46L885.9,114.48Z" style="fill:white;fill-rule:nonzero;"/>
        </g>
        <g transform="matrix(1,0,0,1,-6.94,-13.63)">
            <path d="M892.36,109.45C892.36,111.84 893.49,113.21 895.57,113.21C896.662,113.255 897.717,112.798 898.43,111.97L899.51,112.97C898.502,114.109 897.028,114.728 895.51,114.65C892.63,114.65 890.75,112.92 890.75,109.07C890.75,105.55 892.45,103.49 895.22,103.49C897.99,103.49 899.69,105.49 899.69,108.76L899.69,109.49L892.34,109.49L892.36,109.45ZM897.78,106.45C897.324,105.457 896.328,104.817 895.235,104.817C894.142,104.817 893.146,105.457 892.69,106.45C892.458,107.028 892.345,107.647 892.36,108.27L898.12,108.27C898.135,107.644 898.023,107.021 897.79,106.44L897.78,106.45Z" style="fill:white;fill-rule:nonzero;"/>
        </g>
        <g transform="matrix(1,0,0,1,-6.94,-13.63)">
            <path d="M903,100.49L903,98.69L904.79,98.69L904.79,100.48L903,100.48L903,100.49ZM903.09,114.49L903.09,103.59L904.68,103.59L904.68,114.48L903.09,114.48L903.09,114.49Z" style="fill:white;fill-rule:nonzero;"/>
        </g>
        <g transform="matrix(1,0,0,1,-6.94,-13.63)">
            <path d="M911.75,114.48C911.706,114.482 911.662,114.483 911.618,114.483C910.153,114.483 908.948,113.278 908.948,111.813C908.948,111.729 908.952,111.644 908.96,111.56L908.96,104.87L907.59,104.87L907.59,103.65L909,103.65L909,100.24L910.59,100.24L910.59,103.65L912.91,103.65L912.91,104.87L910.59,104.87L910.59,111.51C910.579,111.58 910.574,111.65 910.574,111.721C910.574,112.478 911.197,113.101 911.954,113.101C911.969,113.101 911.985,113.101 912,113.1L912.84,113.1L912.84,114.47L911.71,114.47L911.75,114.48Z" style="fill:white;fill-rule:nonzero;"/>
        </g>
    </g>
</svg>
