<svg id="Ebene_1" data-name="Ebene 1" xmlns="http://www.w3.org/2000/svg" viewBox="0 0 905.93 146.19"><defs><style>.cls-1{fill:#80ba27;}.cls-2{fill:#4b5c66;}</style></defs><title>FB05_GES</title><rect class="cls-1" x="54.99" y="82.69" width="18.33" height="18.33"/><rect class="cls-2" x="54.99" y="55.2" width="18.33" height="18.33"/><rect class="cls-1" x="54.99" y="27.71" width="18.33" height="18.33"/><rect class="cls-2" x="54.99" y="0.22" width="18.33" height="18.33"/><rect class="cls-2" x="27.49" y="27.71" width="18.33" height="18.33"/><rect class="cls-2" x="27.49" y="0.22" width="18.33" height="18.33"/><rect class="cls-2" y="27.71" width="18.33" height="18.33"/><rect class="cls-2" x="27.49" y="82.69" width="18.33" height="18.33"/><rect class="cls-2" x="27.49" y="55.2" width="18.33" height="18.33"/><rect class="cls-1" y="82.69" width="18.33" height="18.33"/><rect class="cls-2" y="55.2" width="18.33" height="18.33"/><polygon class="cls-1" points="194.41 18.54 194.41 101.02 173.98 101.02 173.98 18.54 146.62 18.54 146.62 0.22 221.77 0.22 221.77 18.54 194.41 18.54"/><polygon class="cls-1" points="300.56 101.02 300.56 58.89 265.12 58.89 265.12 101.02 244.68 101.02 244.68 0.21 265.12 0.21 265.12 40.8 300.56 40.8 300.56 0.21 321 0.21 321 101.02 300.56 101.02"/><polygon class="cls-1" points="418.32 101.02 418.32 43.9 398.79 82.68 384.01 82.69 364.35 43.9 364.35 101.02 343.91 101.02 343.91 0.21 364.06 0.21 391.41 56.84 418.61 0.21 438.76 0.21 438.76 101.02 418.32 101.02"/><path class="cls-2" d="M445.73,159.58v-22h-2.65v15l-5.63-15H435v22h2.65v-15l5.69,15h2.41Zm-14.7,0V157.2h-5.84v-7.48h5v-2.37h-5V140H431v-2.38h-8.49v22H431Zm-12.48-5.9c0-3.46-.59-5-3.08-6l-2.48-1c-1.76-.74-2.1-1.39-2.1-3.55a3.88,3.88,0,0,1,.77-2.63,2.24,2.24,0,0,1,1.71-.68,2.16,2.16,0,0,1,1.79.74,3.88,3.88,0,0,1,.68,2.66h2.65c0-2-.34-3.43-1.45-4.51a5.07,5.07,0,0,0-3.65-1.27,5,5,0,0,0-3.49,1.27,5.93,5.93,0,0,0-1.66,4.51c0,3.34.74,4.57,3,5.5l2.5,1c1.79,0.74,2.17,1.51,2.17,4,0,1.45-.13,2.29-0.71,2.94a2.83,2.83,0,0,1-3.71,0c-0.59-.62-0.74-1.42-0.74-2.88h-2.65c0,2.35.34,3.62,1.36,4.63a5.26,5.26,0,0,0,3.86,1.33,5.46,5.46,0,0,0,3.89-1.33c1-1,1.36-2.5,1.36-4.79m-14.05,0c0-3.46-.59-5-3.09-6l-2.47-1c-1.76-.74-2.1-1.39-2.1-3.55a3.87,3.87,0,0,1,.77-2.63,2.23,2.23,0,0,1,1.7-.68,2.16,2.16,0,0,1,1.79.74,3.87,3.87,0,0,1,.68,2.66h2.65c0-2-.34-3.43-1.45-4.51a5.07,5.07,0,0,0-3.65-1.27,5,5,0,0,0-3.49,1.27,5.93,5.93,0,0,0-1.66,4.51c0,3.34.74,4.57,3,5.5l2.5,1c1.79,0.74,2.17,1.51,2.17,4,0,1.45-.13,2.29-0.71,2.94a2.83,2.83,0,0,1-3.71,0c-0.59-.62-0.74-1.42-0.74-2.88H394c0,2.35.34,3.62,1.36,4.63a5.26,5.26,0,0,0,3.86,1.33,5.46,5.46,0,0,0,3.89-1.33c1-1,1.36-2.5,1.36-4.79m-13.85,5.9V157.2h-5.84v-7.48h5v-2.37h-5V140h5.84v-2.38h-8.5v22h8.5Zm-13,0v-22H375v9.61h-4.88v-9.61h-2.65v22h2.65v-10H375v10h2.65Zm-13.85,0V157.2h-5.84V137.58h-2.65v22h8.49Zm-12.44,0V157.2h-5.84v-7.48h5v-2.37h-5V140h5.84v-2.38h-8.49v22h8.49ZM339.19,140v-2.38h-10V140h3.71v19.62h2.65V140h3.68Zm-13,0v-2.38h-10V140h3.71v19.62h2.65V140h3.68Zm-13.68-2.38h-2.65v22h2.65v-22Zm-7.07,22v-22h-2.5l-4.42,12.23L294,137.58h-2.5v22h2.65V144.17l3.43,10h1.64l3.49-10.29v15.66h2.65Zm-24.69,0V157.2h-5.84v-7.48h5v-2.37h-5V140h5.84v-2.38h-8.49v22h8.49Zm-12.15,0V157.2h-5.84V137.58h-2.65v22h8.49Zm-12.92-5v-17H253v17.15a2.44,2.44,0,1,1-4.86,0V137.58H245.5v17a5.21,5.21,0,0,0,1.42,3.8,5,5,0,0,0,3.64,1.45,5.1,5.1,0,0,0,3.68-1.45,5.22,5.22,0,0,0,1.42-3.8m-14.59,5v-22h-2.65v9.61h-4.88v-9.61h-2.65v22h2.65v-10h4.88v10h2.65Zm-13.93-5.44h-2.62a4.52,4.52,0,0,1-.71,2.54,2.11,2.11,0,0,1-1.73.77,2.16,2.16,0,0,1-1.83-.83c-0.77-1.05-.89-2.81-0.89-8s0.12-7,.89-8a2.16,2.16,0,0,1,1.83-.83,2.1,2.1,0,0,1,1.73.77,4.16,4.16,0,0,1,.71,2.5h2.63a6.16,6.16,0,0,0-1.57-4.36,5.29,5.29,0,0,0-7.26.31c-1.45,1.67-1.61,3.55-1.61,9.64s0.16,8,1.61,9.64a4.75,4.75,0,0,0,3.77,1.6,4.84,4.84,0,0,0,3.4-1.2,6.14,6.14,0,0,0,1.67-4.48m-13.81-.46c0-3.46-.59-5-3.09-6l-2.48-1c-1.76-.74-2.1-1.39-2.1-3.55a3.86,3.86,0,0,1,.77-2.63,2.22,2.22,0,0,1,1.7-.68,2.17,2.17,0,0,1,1.8.74,3.88,3.88,0,0,1,.68,2.66h2.65c0-2-.34-3.43-1.45-4.51a5.07,5.07,0,0,0-3.65-1.27,5,5,0,0,0-3.49,1.27,5.93,5.93,0,0,0-1.67,4.51c0,3.34.74,4.57,3,5.5l2.5,1c1.79,0.74,2.16,1.51,2.16,4,0,1.45-.12,2.29-0.71,2.94a2.83,2.83,0,0,1-3.71,0c-0.59-.62-0.74-1.42-0.74-2.88h-2.65c0,2.35.34,3.62,1.36,4.63a5.27,5.27,0,0,0,3.87,1.33,5.46,5.46,0,0,0,3.89-1.33c1-1,1.36-2.5,1.36-4.79M199,159.58v-22H196.3v9.61h-4.88v-9.61h-2.65v22h2.65v-10h4.88v10H199Zm-14.1-5.44h-2.62a4.54,4.54,0,0,1-.71,2.54,2.1,2.1,0,0,1-1.73.77,2.16,2.16,0,0,1-1.82-.83c-0.77-1.05-.89-2.81-0.89-8s0.12-7,.89-8a2.16,2.16,0,0,1,1.82-.83,2.1,2.1,0,0,1,1.73.77,4.17,4.17,0,0,1,.71,2.5h2.62a6.15,6.15,0,0,0-1.57-4.36,5.29,5.29,0,0,0-7.26.31c-1.45,1.67-1.6,3.55-1.6,9.64s0.16,8,1.6,9.64a4.75,4.75,0,0,0,3.77,1.6,4.84,4.84,0,0,0,3.4-1.2,6.14,6.14,0,0,0,1.67-4.48M168,148.58c0,5.22-.15,7-0.93,8a2.09,2.09,0,0,1-1.79.83,2.16,2.16,0,0,1-1.82-.83c-0.77-1.05-.9-2.81-0.9-8s0.13-7,.9-8a2.16,2.16,0,0,1,1.82-.83,2.09,2.09,0,0,1,1.79.83c0.78,1.05.93,2.81,0.93,8m2.65,0c0-6.09-.18-8.07-1.6-9.64a5.23,5.23,0,0,0-7.54,0c-1.42,1.58-1.61,3.55-1.61,9.64s0.19,8.06,1.61,9.64a5.23,5.23,0,0,0,7.54,0c1.42-1.58,1.6-3.55,1.6-9.64m-14.77,11v-22h-2.65v9.61h-4.89v-9.61h-2.65v22h2.65v-10h4.89v10h2.65Zm-21,0V157.2H129v-7.48h5v-2.37h-5V140h5.84v-2.38h-8.49v22h8.49Zm-13,0v-22h-2.65v9.61H114.3v-9.61h-2.65v22h2.65v-10h4.88v10h2.65Zm-13.93-5.44h-2.62a4.54,4.54,0,0,1-.71,2.54,2.11,2.11,0,0,1-1.73.77,2.16,2.16,0,0,1-1.82-.83c-0.77-1.05-.9-2.81-0.9-8s0.12-7,.9-8a2.16,2.16,0,0,1,1.82-.83,2.1,2.1,0,0,1,1.73.77,4.21,4.21,0,0,1,.71,2.5h2.62a6.15,6.15,0,0,0-1.57-4.36,5.29,5.29,0,0,0-7.26.31c-1.45,1.67-1.6,3.55-1.6,9.64s0.15,8,1.6,9.64a4.74,4.74,0,0,0,3.77,1.6,4.85,4.85,0,0,0,3.4-1.2,6.14,6.14,0,0,0,1.67-4.48m-13.81-.46c0-3.46-.59-5-3.09-6l-2.47-1c-1.76-.74-2.1-1.39-2.1-3.55a3.86,3.86,0,0,1,.77-2.63,2.22,2.22,0,0,1,1.7-.68,2.17,2.17,0,0,1,1.79.74,3.88,3.88,0,0,1,.68,2.66H94c0-2-.34-3.43-1.45-4.51a5.06,5.06,0,0,0-3.65-1.27,5,5,0,0,0-3.49,1.27,5.93,5.93,0,0,0-1.67,4.51c0,3.34.74,4.57,3,5.5l2.51,1c1.79,0.74,2.16,1.51,2.16,4,0,1.45-.12,2.29-0.71,2.94a2.83,2.83,0,0,1-3.71,0c-0.59-.62-0.74-1.42-0.74-2.88H83.62c0,2.35.34,3.62,1.36,4.63a5.26,5.26,0,0,0,3.86,1.33,5.46,5.46,0,0,0,3.89-1.33c1-1,1.36-2.5,1.36-4.79m-14.37-16.1H77.06v22h2.65v-22Zm-7.54,22v-22H69.53v15l-5.63-15H61.43v22h2.65v-15l5.69,15h2.41Zm-15.28,0v-22H54.25v9.61H49.36v-9.61H46.71v22h2.65v-10h4.89v10H56.9Zm-14.1-5.44H40.18a4.55,4.55,0,0,1-.71,2.54,2.11,2.11,0,0,1-1.73.77,2.16,2.16,0,0,1-1.82-.83c-0.77-1.05-.9-2.81-0.9-8s0.12-7,.9-8a2.16,2.16,0,0,1,1.82-.83,2.1,2.1,0,0,1,1.73.77,4.21,4.21,0,0,1,.71,2.5H42.8a6.14,6.14,0,0,0-1.57-4.36,4.72,4.72,0,0,0-3.49-1.29,4.75,4.75,0,0,0-3.77,1.6c-1.45,1.67-1.6,3.55-1.6,9.64s0.16,8,1.6,9.64a4.75,4.75,0,0,0,3.77,1.6,4.85,4.85,0,0,0,3.4-1.2,6.14,6.14,0,0,0,1.66-4.48m-13.69,5.44V157.2H23.28v-7.48h5v-2.37h-5V140h5.84v-2.38H20.62v22h8.49ZM17,140v-2.38h-10V140h3.71v19.62H13.3V140H17Z" transform="translate(-6.94 -13.63)"/><rect class="cls-2" x="108.76" y="0.22" width="2.46" height="100.79"/><rect class="cls-2" x="474.2" y="0.21" width="2.46" height="100.81"/><rect class="cls-2" x="759.77" y="0.21" width="2.46" height="100.81"/><path class="cls-2" d="M533.29,53.26A14.21,14.21,0,0,1,522.83,49a11.23,11.23,0,0,1-3.16-5.83,53,53,0,0,1-.65-9.64,53,53,0,0,1,.65-9.64,11,11,0,0,1,3.16-5.83,14.21,14.21,0,0,1,10.46-4.25c7.46,0,13,4.36,14.27,12.26h-7.68c-0.82-3.32-2.89-5.5-6.54-5.5a6,6,0,0,0-4.85,2c-1.58,1.69-1.91,3.43-1.91,10.95s0.33,9.26,1.91,10.95a6,6,0,0,0,4.85,2c3.65,0,5.72-2.18,6.54-5.5h7.68C546.26,48.91,540.7,53.26,533.29,53.26Z" transform="translate(-6.94 -13.63)"/><path class="cls-2" d="M575.56,52.94l-2.29-6.86H559.49l-2.34,6.86h-7.9l14.11-38.79h5.94l14.16,38.79h-7.9Zm-9-27.35-4.9,14.11h9.64Z" transform="translate(-6.94 -13.63)"/><path class="cls-2" d="M615.81,52.94V30.33L608.4,45h-5.12l-7.46-14.71V52.94h-7.57V14.15h7.46l10.13,21,10.08-21h7.46V52.94h-7.57Z" transform="translate(-6.94 -13.63)"/><path class="cls-2" d="M647.45,38.34H640v14.6h-7.57V14.15h15c8,0,12.8,5.5,12.8,12.09S655.46,38.34,647.45,38.34Zm-0.38-17.43H640V31.53h7.08c3.43,0,5.61-2.12,5.61-5.28S650.5,20.91,647.07,20.91Z" transform="translate(-6.94 -13.63)"/><path class="cls-2" d="M680.29,53.26c-8,0-14.27-5.39-14.27-13.62V14.15h7.57V39.37c0,4.47,2.61,7.14,6.7,7.14S687,43.84,687,39.37V14.15h7.52V39.65C694.57,47.87,688.25,53.26,680.29,53.26Z" transform="translate(-6.94 -13.63)"/><path class="cls-2" d="M713.68,53.26c-5.88,0-10.35-1.25-14.16-5.12l4.9-4.9c2.45,2.45,5.77,3.27,9.37,3.27,4.47,0,6.86-1.69,6.86-4.79a4.32,4.32,0,0,0-1.2-3.27A5.78,5.78,0,0,0,716,37.09l-4.69-.65c-3.32-.49-5.77-1.53-7.52-3.21A10.25,10.25,0,0,1,701,25.59c0-6.92,5.12-11.77,13.51-11.77,5.34,0,9.21,1.31,12.53,4.52l-4.79,4.74c-2.45-2.34-5.39-2.67-8-2.67-4,0-6,2.23-6,4.9a3.74,3.74,0,0,0,1.14,2.78,6.67,6.67,0,0,0,3.59,1.52l4.58,0.65c3.54,0.49,5.77,1.47,7.41,3,2.07,2,3,4.79,3,8.23C728.06,49,721.8,53.26,713.68,53.26Z" transform="translate(-6.94 -13.63)"/><path class="cls-2" d="M544.24,110.2a14.54,14.54,0,0,1-10.95,4.41,14.21,14.21,0,0,1-10.46-4.25,11.23,11.23,0,0,1-3.16-5.83,53,53,0,0,1-.65-9.64,53,53,0,0,1,.65-9.64,11,11,0,0,1,3.16-5.83,14.21,14.21,0,0,1,10.46-4.25c8.82,0,13.56,5.67,14.6,12.42h-7.63c-0.93-3.76-3.21-5.66-7-5.66A6.18,6.18,0,0,0,528.44,84c-1.42,1.8-1.85,3.21-1.85,10.89s0.33,9.15,1.85,10.95a6,6,0,0,0,4.85,2,7,7,0,0,0,5.39-2.18,7.62,7.62,0,0,0,1.74-5.17V99h-7.14V92.72h14.65v5.67C547.94,104,546.91,107.37,544.24,110.2Z" transform="translate(-6.94 -13.63)"/><path class="cls-2" d="M555,114.29V75.5h7.57v38.79H555Z" transform="translate(-6.94 -13.63)"/><path class="cls-2" d="M571.63,114.29V75.5h25.55v6.75h-18v9.1h15.31v6.75H579.21v9.42h18v6.75H571.63Z" transform="translate(-6.94 -13.63)"/><path class="cls-2" d="M615.26,114.61c-5.88,0-10.35-1.25-14.16-5.12l4.9-4.9c2.45,2.45,5.77,3.27,9.37,3.27,4.47,0,6.86-1.69,6.86-4.79A4.32,4.32,0,0,0,621,99.8a5.78,5.78,0,0,0-3.43-1.36l-4.69-.65c-3.32-.49-5.77-1.53-7.52-3.21a10.25,10.25,0,0,1-2.78-7.63c0-6.92,5.12-11.77,13.51-11.77,5.34,0,9.21,1.31,12.53,4.52l-4.79,4.74c-2.45-2.34-5.39-2.67-8-2.67-4,0-6,2.23-6,4.9a3.74,3.74,0,0,0,1.14,2.78A6.67,6.67,0,0,0,614.66,91l4.58,0.65c3.54,0.49,5.77,1.47,7.41,3,2.07,2,3,4.79,3,8.23C629.64,110.37,623.38,114.61,615.26,114.61Z" transform="translate(-6.94 -13.63)"/><path class="cls-2" d="M647.13,114.61c-5.88,0-10.35-1.25-14.16-5.12l4.9-4.9c2.45,2.45,5.77,3.27,9.37,3.27,4.47,0,6.86-1.69,6.86-4.79a4.32,4.32,0,0,0-1.2-3.27,5.78,5.78,0,0,0-3.43-1.36l-4.69-.65c-3.32-.49-5.77-1.53-7.52-3.21a10.25,10.25,0,0,1-2.78-7.63c0-6.92,5.12-11.77,13.51-11.77,5.34,0,9.21,1.31,12.53,4.52l-4.79,4.74c-2.45-2.34-5.39-2.67-8-2.67-4,0-6,2.23-6,4.9a3.74,3.74,0,0,0,1.14,2.78A6.67,6.67,0,0,0,646.53,91l4.58,0.65c3.54,0.49,5.77,1.47,7.41,3,2.07,2,3,4.79,3,8.23C661.51,110.37,655.24,114.61,647.13,114.61Z" transform="translate(-6.94 -13.63)"/><path class="cls-2" d="M668.64,114.29V75.5h25.55v6.75h-18v9.1h15.31v6.75H676.21v9.42h18v6.75H668.64Z" transform="translate(-6.94 -13.63)"/><path class="cls-2" d="M724.52,114.29L709.16,90.48v23.81h-7.57V75.5h6.75l15.36,23.75V75.5h7.57v38.79h-6.75Z" transform="translate(-6.94 -13.63)"/><path class="cls-2" d="M829.74,48.57A14.5,14.5,0,0,1,818.82,53a14.18,14.18,0,0,1-10.43-4.24,11.2,11.2,0,0,1-3.15-5.81,52.83,52.83,0,0,1-.65-9.62,52.83,52.83,0,0,1,.65-9.62,11,11,0,0,1,3.15-5.81,14.18,14.18,0,0,1,10.43-4.24c8.8,0,13.53,5.65,14.56,12.39h-7.61c-0.92-3.75-3.21-5.65-7-5.65A6.16,6.16,0,0,0,814,22.44c-1.41,1.79-1.85,3.21-1.85,10.87s0.33,9.13,1.85,10.92a6,6,0,0,0,4.84,2,7,7,0,0,0,5.38-2.17,7.6,7.6,0,0,0,1.74-5.16V37.43h-7.12v-6.3h14.62v5.65C833.43,42.43,832.4,45.74,829.74,48.57Z" transform="translate(-6.94 -13.63)"/><path class="cls-2" d="M840.5,52.64V14H866V20.7H848.05v9.07h15.27v6.74H848.05v9.4H866v6.74H840.5Z" transform="translate(-6.94 -13.63)"/><path class="cls-2" d="M884,53c-5.87,0-10.32-1.25-14.13-5.11L874.79,43c2.44,2.44,5.76,3.26,9.35,3.26,4.45,0,6.85-1.68,6.85-4.78a4.31,4.31,0,0,0-1.2-3.26,5.76,5.76,0,0,0-3.42-1.36l-4.67-.65c-3.31-.49-5.76-1.52-7.5-3.21a10.22,10.22,0,0,1-2.77-7.61c0-6.9,5.11-11.74,13.47-11.74,5.33,0,9.18,1.3,12.5,4.51l-4.78,4.73c-2.45-2.34-5.38-2.66-7.93-2.66-4,0-6,2.23-6,4.89a3.73,3.73,0,0,0,1.14,2.77,6.66,6.66,0,0,0,3.59,1.52L888,30c3.53,0.49,5.76,1.47,7.39,3,2.06,2,3,4.78,3,8.2C898.37,48.73,892.12,53,884,53Z" transform="translate(-6.94 -13.63)"/><path class="cls-2" d="M814.32,112.79a5.78,5.78,0,0,1-8.23.18c-1.48-1.48-1.48-3-1.48-6.37s0-4.89,1.48-6.37a5.58,5.58,0,0,1,4-1.64,5.37,5.37,0,0,1,5.51,4.71h-1.68a3.88,3.88,0,0,0-6.55-2.08c-1,1-1.11,2.08-1.11,5.38s0.11,4.38,1.11,5.4a3.79,3.79,0,0,0,2.72,1.11,3.84,3.84,0,0,0,3-1.35,4.13,4.13,0,0,0,.88-2.86v-1.2h-3.87v-1.48h5.56v2.5A5.45,5.45,0,0,1,814.32,112.79Z" transform="translate(-6.94 -13.63)"/><path class="cls-2" d="M820.29,109.45c0,2.39,1.13,3.76,3.21,3.76a3.58,3.58,0,0,0,2.86-1.24l1.08,1a5,5,0,0,1-4,1.68c-2.88,0-4.76-1.73-4.76-5.58,0-3.52,1.7-5.58,4.47-5.58s4.47,2,4.47,5.27v0.73h-7.35Zm5.42-3a2.8,2.8,0,0,0-5.09,0,4.59,4.59,0,0,0-.33,1.82H826A4.61,4.61,0,0,0,825.71,106.44Z" transform="translate(-6.94 -13.63)"/><path class="cls-2" d="M834.45,114.61A6,6,0,0,1,830,113L831,112a4.46,4.46,0,0,0,3.39,1.26c1.79,0,2.9-.64,2.9-1.93,0-1-.55-1.48-1.82-1.59l-1.79-.16c-2.13-.18-3.25-1.13-3.25-2.92,0-2,1.68-3.19,4-3.19a6.16,6.16,0,0,1,3.92,1.17l-1,1a4.65,4.65,0,0,0-2.9-.86c-1.59,0-2.43.69-2.43,1.79,0,0.93.53,1.48,1.9,1.59l1.75,0.16c1.9,0.18,3.21.91,3.21,2.94S837.09,114.61,834.45,114.61Z" transform="translate(-6.94 -13.63)"/><path class="cls-2" d="M848.88,114.48v-1.22a4,4,0,0,1-3.08,1.35,3.87,3.87,0,0,1-2.81-1,4.06,4.06,0,0,1-1.11-3.05v-7h1.59v6.71c0,1.93,1,2.9,2.66,2.9a2.58,2.58,0,0,0,2.72-2.9v-6.71h1.59v10.89h-1.57Z" transform="translate(-6.94 -13.63)"/><path class="cls-2" d="M861.41,114.48v-6.71c0-1.93-1-2.9-2.68-2.9s-2.7,1-2.7,2.9v6.71h-1.59V103.59H856v1.2a3.92,3.92,0,0,1,3.05-1.33,3.82,3.82,0,0,1,2.79,1,4,4,0,0,1,1.13,3v7h-1.59Z" transform="translate(-6.94 -13.63)"/><path class="cls-2" d="M873.38,114.48v-1.31a3.53,3.53,0,0,1-3.1,1.44,3.79,3.79,0,0,1-2.66-1c-1.11-1.11-1.33-2.92-1.33-4.63s0.22-3.52,1.33-4.63a3.79,3.79,0,0,1,2.66-1,3.5,3.5,0,0,1,3.08,1.39V98.72h1.59v15.76h-1.57Zm-2.74-9.61c-2.37,0-2.75,2-2.75,4.16s0.38,4.16,2.75,4.16,2.72-2,2.72-4.16S873,104.87,870.63,104.87Z" transform="translate(-6.94 -13.63)"/><path class="cls-2" d="M885.9,114.48v-6.73c0-1.9-1-2.88-2.66-2.88a2.57,2.57,0,0,0-2.72,2.88v6.73h-1.59V98.72h1.59v6.07a3.88,3.88,0,0,1,3.05-1.33,3.68,3.68,0,0,1,3.92,4v7H885.9Z" transform="translate(-6.94 -13.63)"/><path class="cls-2" d="M892.36,109.45c0,2.39,1.13,3.76,3.21,3.76a3.58,3.58,0,0,0,2.86-1.24l1.08,1a5,5,0,0,1-4,1.68c-2.88,0-4.76-1.73-4.76-5.58,0-3.52,1.7-5.58,4.47-5.58s4.47,2,4.47,5.27v0.73h-7.35Zm5.42-3a2.8,2.8,0,0,0-5.09,0,4.59,4.59,0,0,0-.33,1.82h5.76A4.61,4.61,0,0,0,897.79,106.44Z" transform="translate(-6.94 -13.63)"/><path class="cls-2" d="M903,100.49V98.69h1.79v1.79H903Zm0.09,14V103.59h1.59v10.89h-1.59Z" transform="translate(-6.94 -13.63)"/><path class="cls-2" d="M911.75,114.48a2.67,2.67,0,0,1-2.79-2.92v-6.69h-1.37v-1.22H909v-3.41h1.59v3.41h2.32v1.22h-2.32v6.64A1.38,1.38,0,0,0,912,113.1h0.84v1.37h-1.13Z" transform="translate(-6.94 -13.63)"/></svg>