<?xml version="1.0" encoding="UTF-8" standalone="no"?>
<!DOCTYPE svg PUBLIC "-//W3C//DTD SVG 1.1//EN" "http://www.w3.org/Graphics/SVG/1.1/DTD/svg11.dtd">
<svg width="100%" height="100%" viewBox="0 0 950 950" version="1.1" xmlns="http://www.w3.org/2000/svg" xmlns:xlink="http://www.w3.org/1999/xlink" xml:space="preserve" xmlns:serif="http://www.serif.com/" style="fill-rule:evenodd;clip-rule:evenodd;stroke-linecap:round;stroke-miterlimit:2;">
    <g id="Support" transform="matrix(0.956664,0,0,1.1146,3.47478,995.092)">
        <rect x="-3.632" y="-892.781" width="993.034" height="852.325" style="fill:none;"/>
        <clipPath id="_clip1">
            <rect x="-3.632" y="-892.781" width="993.034" height="852.325"/>
        </clipPath>
        <g clip-path="url(#_clip1)">
            <g transform="matrix(1.0453,0,0,0.897184,-111.906,-927.312)">
                <rect x="0" y="1" width="3000" height="1000" style="fill:white;"/>
                <path d="M246.42,540.572C237.825,464.326 241.989,286.227 403.45,239.919C579.187,189.516 661.129,439.444 734.771,423.071C734.771,423.071 887.136,386.025 906.74,548.82C926.345,711.616 701.398,781.92 473.811,755.554C367.915,743.286 259.121,653.246 246.42,540.572Z" style="fill:rgb(237,240,249);fill-rule:nonzero;"/>
                <path d="M639.762,365.414C639.762,441.509 578.075,503.196 501.981,503.196C425.887,503.196 364.2,441.509 364.2,365.414C364.2,289.32 425.887,227.634 501.981,227.634C578.075,227.634 639.762,289.32 639.762,365.414Z" style="fill:rgb(216,222,240);fill-rule:nonzero;"/>
                <path d="M634.549,814.963C634.549,814.963 652.848,751.386 644.459,727.091L663.247,641.177L623.691,646.082L625.539,815.951L634.549,814.963Z" style="fill:rgb(227,99,61);"/>
                <path d="M738.47,479.651L804.298,479.651L804.298,523.784L736.207,523.784L736.207,490.684" style="fill:none;stroke:rgb(45,78,115);stroke-width:2.13px;"/>
                <path d="M741.605,485.048L771.128,506.864L804.298,479.651" style="fill:none;stroke:rgb(45,78,115);stroke-width:2.13px;"/>
                <path d="M371.031,292.511L350.388,288.173" style="fill:none;stroke:rgb(45,78,115);stroke-width:2.13px;"/>
                <path d="M380.706,267.507L362.428,253.32" style="fill:none;stroke:rgb(45,78,115);stroke-width:2.13px;"/>
                <path d="M402.804,252.363L395.287,232.649" style="fill:none;stroke:rgb(45,78,115);stroke-width:2.13px;"/>
                <path d="M503.839,527.068C496.519,528.817 489.862,527.745 483.86,523.865C477.858,519.985 473.928,514.156 472.071,506.38C470.215,498.611 471.086,491.634 474.686,485.456C478.286,479.282 483.739,475.317 491.059,473.569C498.374,471.822 505.089,472.88 511.209,476.731C517.325,480.589 521.314,486.405 523.169,494.174C525.027,501.95 524.097,508.94 520.383,515.141C516.666,521.344 511.153,525.321 503.839,527.068ZM467.753,453.398C464.64,445.441 463.127,437.828 463.203,430.559C463.28,423.29 464.292,416.404 466.243,409.894C468.19,403.392 470.692,397.175 473.751,391.244C476.805,385.321 479.661,379.563 482.313,373.974C484.967,368.389 487.001,363.009 488.426,357.831C489.848,352.66 489.933,347.446 488.676,342.184C486.711,333.953 482.667,327.912 476.552,324.054C470.432,320.203 463.03,319.309 454.344,321.384C447.255,323.077 441.234,326.209 436.286,330.772C431.334,335.342 426.996,340.966 423.28,347.654L396.499,332.664C401.969,322.175 409.233,312.89 418.3,304.799C427.363,296.715 438.413,291.113 451.445,288C460.361,285.87 468.879,285.104 476.997,285.703C485.115,286.301 492.433,288.36 498.954,291.877C505.47,295.395 511.125,300.332 515.903,306.679C520.682,313.031 524.192,320.893 526.431,330.265C528.179,337.585 528.431,344.469 527.197,350.927C525.959,357.385 524.025,363.709 521.396,369.894C518.763,376.085 515.794,382.107 512.482,387.974C509.172,393.84 506.371,399.828 504.085,405.931C501.794,412.04 500.276,418.322 499.525,424.783C498.77,431.25 499.727,438.028 502.39,445.124L467.753,453.398Z" style="fill:rgb(32,69,112);fill-rule:nonzero;"/>
                <path d="M560.88,343.868L564.834,310.614L600.57,315.878L594.46,348.813L574.939,447.149L551.217,443.655L560.88,343.868ZM553.518,511.369C546.943,510.4 541.765,507.458 537.977,502.551C534.186,497.642 532.78,491.893 533.75,485.307C534.719,478.725 537.723,473.625 542.77,470.014C547.812,466.406 553.618,465.082 560.193,466.051C566.764,467.018 571.894,469.954 575.58,474.847C579.265,479.744 580.623,485.486 579.653,492.068C578.683,498.654 575.727,503.761 570.788,507.383C565.847,511.006 560.088,512.337 553.518,511.369Z" style="fill:rgb(173,185,212);fill-rule:nonzero;"/>
                <path d="M284.391,630.676L275.978,622.238C274.232,620.487 271.723,620.157 270.374,621.502L260.196,631.65C258.627,633.458 258.956,636.399 259.644,639.754C261.937,650.915 292.785,682.483 305.132,685.615C308.452,686.458 312.303,686.117 313.497,685.105L323.675,674.957C325.023,673.612 324.701,671.102 322.955,669.352L314.542,660.914C312.39,658.756 309.299,658.35 307.637,660.007L303.01,664.62C302.116,665.512 300.563,665.536 299.199,664.677C295.326,662.235 291.798,659.548 288.645,656.591C285.695,653.429 283.015,649.891 280.584,646.008C279.729,644.641 279.757,643.088 280.651,642.196L285.278,637.583C286.94,635.926 286.543,632.834 284.391,630.676Z" style="fill:none;stroke:rgb(45,78,115);stroke-width:2.13px;"/>
                <path d="M257.765,591.116C257.765,591.116 253.679,504.948 324.508,472.752" style="fill:none;stroke:rgb(45,78,115);stroke-width:2px;stroke-linejoin:round;stroke-dasharray:16.09,16.09;"/>
                <path d="M679.917,537.265C679.347,535.875 679.544,534.31 680.202,532.959C685.542,521.996 669.53,517.784 664.646,515.388C659.55,512.888 663.437,504.111 653.246,502.614C643.054,501.117 640.836,506.716 640.35,506.647C639.637,506.546 643.192,515.745 643.192,515.745C643.192,515.745 648.264,516.435 649.895,526.06C651.525,535.685 649.872,541.136 657.152,547.629C664.433,554.122 686.238,540.165 686.238,540.165C682.317,540.822 680.636,539.02 679.917,537.265Z" style="fill:rgb(29,30,38);"/>
                <path d="M625.894,519.706C625.894,519.706 626.051,527.992 626.182,534.855C626.216,536.684 627.225,538.349 628.818,539.209C630.412,540.07 632.344,539.995 633.873,539.012C634.373,538.689 634.861,538.376 635.322,538.079C637.419,536.73 638.562,534.283 638.256,531.796C637.473,525.42 636.048,513.807 636.048,513.807L625.894,519.706Z" style="fill:rgb(212,109,78);"/>
                <path d="M625.601,524.224L626.074,529.187L630.681,524.803L625.601,524.224Z" style="fill:rgb(135,59,36);"/>
                <path d="M641.561,514.893C642.77,512.787 642.064,510.103 639.984,508.898C637.764,507.612 634.964,505.99 632.745,504.705C630.666,503.5 628.307,504.441 626.791,506.336C625.002,508.572 622.451,513.886 621.064,517.966C620.281,520.265 620.802,523.104 622.881,524.31C625.102,525.595 632.983,527.308 635.933,523.66C638.178,520.884 639.781,517.993 641.561,514.893Z" style="fill:rgb(212,109,78);"/>
                <path d="M639.07,524.599C642.738,526 646.755,523.49 647.041,519.573C647.288,516.198 647.251,512.537 646.283,510.465C643.423,504.341 638.236,499.602 629.436,502.685C629.436,502.685 629.071,511.071 639.07,524.599Z" style="fill:rgb(29,30,38);"/>
                <path d="M639.07,524.599C637.552,525.887 635.473,525.91 634.424,524.651C633.376,523.393 633.756,521.326 635.273,520.039C636.79,518.75 638.87,518.727 639.919,519.985C640.967,521.245 640.587,523.31 639.07,524.599Z" style="fill:rgb(212,109,78);"/>
                <path d="M622.824,516.875L626.478,518.893C626.478,518.893 625.025,521.381 623.383,520.199C621.74,519.018 622.824,516.875 622.824,516.875Z" style="fill:white;"/>
                <path d="M642.503,504.948C642.503,504.948 647.752,505.659 647.348,513.19" style="fill:none;stroke:rgb(139,147,156);stroke-width:0.96px;stroke-linejoin:round;"/>
                <path d="M574.595,705.754L607.201,729.777C614.15,728.735 614.107,724.79 609.823,720.081C591.484,699.513 587.644,682.951 557.815,671.956L574.595,705.754Z" style="fill:rgb(227,99,61);"/>
                <path d="M606.296,729.01L608.765,737.885C609.501,739.712 609.211,748.258 609.211,748.258C610.467,749.535 611.788,748.289 612.43,747.074L619.858,724.035C619.858,724.035 620.645,718.408 609.439,719.918C609.736,724.656 609.653,728.913 606.296,729.01Z" style="fill:rgb(74,42,26);"/>
                <path d="M603.533,618.987C603.533,618.987 566.904,649.31 553.002,660.225C549.827,662.718 544.12,669.099 543.748,673.119C542.67,684.753 590.3,722.609 590.3,722.609C590.3,722.609 599.046,713.246 606.055,710.994C590.38,682.729 579.092,689.945 576.882,675.333L619.836,651.733L603.533,618.987Z" style="fill:rgb(54,100,201);"/>
                <path d="M691.328,867.983C691.328,870.962 656.003,873.376 612.429,873.376C568.854,873.376 533.53,870.962 533.53,867.983C533.53,865.005 568.855,862.591 612.429,862.591C656.003,862.591 691.328,865.005 691.328,867.983Z" style="fill:rgb(227,229,235);"/>
                <path d="M649.427,600.173L596.126,607.197C587.594,610.873 607.446,652.962 607.446,652.962L629.121,660.571C645.454,659.329 665.5,671.089 666.034,643.731C666.646,612.459 649.427,600.173 649.427,600.173Z" style="fill:rgb(54,100,201);"/>
                <path d="M612.132,532.691L631.855,530.7L637.25,530.997L657.651,538.475C664.505,542.003 667.585,550.082 664.83,557.31L659.438,580.711C659.919,607.687 664.651,613.753 665.835,629.178C636.577,639.519 596.602,638.359 587.632,624.869C589.757,588.409 597.595,555.947 612.132,532.691Z" style="fill:rgb(160,196,231);"/>
                <path d="M621.093,531.84C621.093,531.84 614.39,547.705 625.339,548.579C636.288,549.454 642.549,532.953 642.549,532.953L634.601,529.269L621.093,531.84Z" style="fill:rgb(212,109,78);fill-rule:nonzero;"/>
                <path d="M583.176,580.24C582.6,587.76 577.825,593.636 569.089,593.977L526.954,586.928L531.587,579.33L563.703,579.469L583.176,580.24Z" style="fill:rgb(212,109,78);"/>
                <path d="M535.636,580.151L528.336,577.456C526.876,576.918 525.272,576.921 523.815,577.464L517.913,579.666C515.856,580.433 515.198,583.018 516.642,584.674L526.008,587.542C528.074,588.175 530.454,588 532.667,587.053L536.356,585.475L535.636,580.151Z" style="fill:rgb(212,109,78);fill-rule:nonzero;"/>
                <path d="M612.429,554.883C612.429,554.883 581.45,589.175 577.025,593.697C572.599,598.22 561.342,594.96 538.491,589.727L538.882,575.246C538.882,575.246 551.267,575.971 566.936,577.815C567.407,577.871 597.168,534.537 612.132,532.691L612.429,554.883Z" style="fill:rgb(160,196,231);"/>
                <path d="M676.666,565.901C683.391,562.488 690.892,563.517 695.722,570.803L711.584,610.471L702.685,610.458L686.122,582.942L676.666,565.901Z" style="fill:rgb(212,109,78);"/>
                <path d="M700.753,607.435L704.002,614.507C704.651,615.92 705.786,617.054 707.2,617.701L712.927,620.324C714.923,621.238 717.217,619.877 717.37,617.686L712.785,609.03C711.773,607.121 709.969,605.56 707.735,604.662L704.012,603.165L700.753,607.435Z" style="fill:rgb(212,109,78);fill-rule:nonzero;"/>
                <path d="M653.878,536.861C653.878,536.861 677.431,553.409 682.749,557.806C687.625,561.837 702.868,574.333 707.654,595.48L693.357,602.974C693.357,602.974 686.631,582.436 678.853,576.213C674.097,572.408 650.318,556.445 650.318,556.445L653.878,536.861Z" style="fill:rgb(160,196,231);"/>
                <path d="M585.384,589.106L530.685,582.876L531.156,578.737L581.716,584.496C584.002,584.756 585.644,586.82 585.384,589.106Z" style="fill:white;"/>
                <path d="M567.012,587.014L515.179,581.11L503.51,544.475L554.155,550.243C554.878,550.325 555.484,550.824 555.705,551.517L567.012,587.014Z" style="fill:white;"/>
                <path d="M565.001,586.784L513.169,580.881L502.036,545.932C501.784,545.141 502.432,544.352 503.257,544.446L552.595,550.065C553.044,550.116 553.42,550.426 553.557,550.855L565.001,586.784Z" style="fill:rgb(29,30,38);"/>
                <path d="M535.108,565.949C535.477,568.193 533.594,569.764 530.903,569.457C528.211,569.15 525.731,567.083 525.361,564.839C524.993,562.595 526.876,561.024 529.567,561.331C532.259,561.638 534.74,563.705 535.108,565.949Z" style="fill:white;"/>
                <path d="M617.732,652.891L617.732,731.558L619.245,803.536L647.903,801.958C647.903,801.958 647.037,789.477 647.927,785.452C648.817,781.427 655.304,743.361 649.074,726.355L662.414,657.629L617.732,652.891Z" style="fill:rgb(54,100,201);"/>
                <path d="M626.064,814.336L620.268,822.825C619.227,824.782 611.858,830.504 611.858,830.504C611.628,832.554 613.559,832.895 615.01,832.635L637.607,823.938C637.607,823.938 644.58,820.1 635.802,810.854C632.023,814.448 628.395,817.354 626.064,814.336Z" style="fill:rgb(74,42,26);"/>
                <path d="M737.968,686.035C762.291,719.088 771.12,750.082 758.84,771.694C733.386,816.495 626.866,804.016 520.922,743.82C414.978,683.626 349.728,598.51 375.183,553.709C387.308,532.368 417.828,524.026 457.918,527.645" style="fill:none;stroke:rgb(45,78,115);stroke-width:1.85px;"/>
                <path d="M781.366,730.425C781.366,730.425 775.828,696.446 735.476,649.686" style="fill:none;stroke:rgb(45,78,115);stroke-width:1.85px;"/>
                <path d="M442.347,504.168C442.347,504.168 387.227,497.609 362.699,532.691" style="fill:none;stroke:rgb(45,78,115);stroke-width:1.85px;"/>
                <path d="M441.797,722.065C441.797,722.065 507.917,777.688 559.996,789.571" style="fill:none;stroke:rgb(45,78,115);stroke-width:1.85px;"/>
                <path d="M634.553,273.394C631.352,263.34 630.476,252.631 632.578,242.292C635.931,225.792 647.024,207.22 681.669,218.693C739.011,237.682 737.136,323.132 776.843,329.462C816.55,335.792 850.572,376.711 788.675,388.803C729.546,400.354 671.692,390.054 634.553,273.394Z" style="fill:rgb(237,240,249);fill-rule:nonzero;"/>
                <path d="M736.113,320.325C736.113,325.752 731.714,330.152 726.287,330.152C720.86,330.152 716.461,325.752 716.461,320.325C716.461,314.898 720.86,310.499 726.287,310.499C731.714,310.499 736.113,314.898 736.113,320.325Z" style="fill:none;stroke:rgb(45,78,115);stroke-width:2.13px;"/>
                <path d="M834.583,630.887C834.583,636.313 830.184,640.713 824.756,640.713C819.33,640.713 814.93,636.313 814.93,630.887C814.93,625.46 819.33,621.06 824.756,621.06C830.184,621.06 834.583,625.46 834.583,630.887Z" style="fill:none;stroke:rgb(45,78,115);stroke-width:2.13px;"/>
                <path d="M263.505,436.158C263.505,441.585 259.105,445.984 253.679,445.984C248.252,445.984 243.853,441.585 243.853,436.158C243.853,430.731 248.252,426.331 253.679,426.331C259.105,426.331 263.505,430.731 263.505,436.158Z" style="fill:none;stroke:rgb(45,78,115);stroke-width:2.13px;"/>
                <g transform="matrix(1,0,0,1,0,10)">
                    <path d="M664.545,375.156C664.545,375.156 749.962,387.221 768.376,462.813" style="fill:none;stroke:rgb(45,78,115);stroke-width:2px;stroke-linejoin:round;stroke-dasharray:16.09,16.09;"/>
                </g>
            </g>
        </g>
    </g>
</svg>
